<mxfile host="multicloud-diagrams" agent="PIP package multicloud-diagrams. Generate resources in draw.io compatible format for Cloud infrastructure. Copyrights @ Roman Tsypuk 2023. MIT license." type="MultiCloud">
	<diagram id="diagram_1" name="AWS components">
		<mxGraphModel dx="1015" dy="661" grid="1" gridSize="10" guides="1" tooltips="1" connect="1" arrows="1" fold="1" page="1" pageScale="1" pageWidth="850" pageHeight="1100" math="0" shadow="1">
			<root>
				<mxCell id="0"/>
				<mxCell id="1" parent="0"/>
				<mxCell id="vertex:Build Details Landscape:list" value="&lt;b&gt;Build Details Landscape&lt;/b&gt;" style="swimlane;fontStyle=0;childLayout=stackLayout;horizontal=1;startSize=30;horizontalStack=0;resizeParent=1;resizeParentMax=0;resizeLast=0;collapsible=1;marginBottom=0;whiteSpace=wrap;html=1;" parent="1" vertex="1">
					<mxGeometry width="300" height="150" as="geometry" y="-80"/>
				</mxCell>
				<mxCell id="vertex:Build Details Landscape:row:0" value="Build Time: 2023-09-17 14:47:39" style="text;strokeColor=none;fillColor=none;align=left;verticalAlign=middle;spacingLeft=4;spacingRight=4;overflow=hidden;portConstraint=eastwest;rotatable=0;whiteSpace=wrap;html=1;" parent="vertex:Build Details Landscape:list" vertex="1">
					<mxGeometry width="300" height="30" y="30" as="geometry"/>
				</mxCell>
				<mxCell id="vertex:Build Details Landscape:row:1" value="MultiCloud-Diagrams version: 0.3.13" style="text;strokeColor=none;fillColor=none;align=left;verticalAlign=middle;spacingLeft=4;spacingRight=4;overflow=hidden;portConstraint=eastwest;rotatable=0;whiteSpace=wrap;html=1;" parent="vertex:Build Details Landscape:list" vertex="1">
					<mxGeometry width="300" height="30" y="60" as="geometry"/>
				</mxCell>
				<mxCell id="vertex:Build Details Landscape:row:2" value="Supported nodes: 18" style="text;strokeColor=none;fillColor=none;align=left;verticalAlign=middle;spacingLeft=4;spacingRight=4;overflow=hidden;portConstraint=eastwest;rotatable=0;whiteSpace=wrap;html=1;" parent="vertex:Build Details Landscape:list" vertex="1">
					<mxGeometry width="300" height="30" y="90" as="geometry"/>
				</mxCell>
				<mxCell id="vertex:Build Details Landscape:row:3" value="HASH: d1945b6e411a12f3" style="text;strokeColor=none;fillColor=none;align=left;verticalAlign=middle;spacingLeft=4;spacingRight=4;overflow=hidden;portConstraint=eastwest;rotatable=0;whiteSpace=wrap;html=1;" parent="vertex:Build Details Landscape:list" vertex="1">
					<mxGeometry width="300" height="30" y="120" as="geometry"/>
				</mxCell>
				<mxCell id="vertex:dynamo:arn:aws:dynamodb:eu-west-1:123456789012:table/prod-dynamo-table" value="&lt;b&gt;Name&lt;/b&gt;: prod-dynamo-table&lt;BR&gt;&lt;b&gt;ARN&lt;/b&gt;: arn:aws:dynamodb:eu-west-1:123456789012:table/prod-dynamo-table&lt;BR&gt;-----------&lt;BR&gt;&lt;b&gt;DeletionProtectionEnabled&lt;/b&gt;: True&lt;BR&gt;&lt;b&gt;ItemCount&lt;/b&gt;: 900&lt;BR&gt;&lt;b&gt;TableSizeBytes&lt;/b&gt;: 123" style="outlineConnect=0;dashed=0;verticalLabelPosition=bottom;verticalAlign=top;align=left;html=1;shape=mxgraph.aws3.dynamo_db;fillColor=#2E73B8;gradientColor=none;" parent="1" vertex="1">
					<mxGeometry width="72" height="81" as="geometry" x="1092" y="340"/>
				</mxCell>
				<mxCell id="vertex:dynamo_stream:arn:aws:dynamodb:eu-west-1:123456789012:table/transactions-outbox/stream" value="&lt;b&gt;Name&lt;/b&gt;: transactions-outbox&lt;BR&gt;&lt;b&gt;ARN&lt;/b&gt;: arn:aws:dynamodb:eu-west-1:123456789012:table/transactions-outbox/stream&lt;BR&gt;-----------&lt;BR&gt;&lt;b&gt;LatestStreamLabel&lt;/b&gt;: 2022-12-05T06:41:33.710&lt;BR&gt;&lt;b&gt;StreamViewType&lt;/b&gt;: StreamViewType" style="sketch=0;outlineConnect=0;fontColor=#232F3E;gradientColor=none;fillColor=#2E27AD;strokeColor=none;dashed=0;verticalLabelPosition=bottom;verticalAlign=top;align=left;html=1;fontSize=12;fontStyle=0;aspect=fixed;pointerEvents=1;shape=mxgraph.aws4.dynamodb_stream" parent="1" vertex="1">
					<mxGeometry width="78" height="78" as="geometry" x="1092" y="120"/>
				</mxCell>
				<mxCell id="vertex:api_gw:4kwel11111" value="&lt;b&gt;Name&lt;/b&gt;: prod-rules&lt;BR&gt;&lt;b&gt;ARN&lt;/b&gt;: 4kwel11111&lt;BR&gt;-----------&lt;BR&gt;&lt;b&gt;api_key_source&lt;/b&gt;: HEADER&lt;BR&gt;&lt;b&gt;endpoint_configuration&lt;/b&gt;: {'types': ['EDGE']}&lt;BR&gt;&lt;b&gt;id&lt;/b&gt;: 4kwel11111" style="outlineConnect=0;dashed=0;verticalLabelPosition=bottom;verticalAlign=top;align=left;html=1;shape=mxgraph.aws3.api_gateway;fillColor=#D9A741;gradientColor=none;" parent="1" vertex="1">
					<mxGeometry width="76.5" height="93" as="geometry" x="30" y="112.5"/>
				</mxCell>
				<mxCell id="vertex:sqs:arn:aws:sqs:eu-west-1:123456789012:int-eu-live-events.fifo" value="&lt;b&gt;Name&lt;/b&gt;: int-eu-live-events.fifo&lt;BR&gt;&lt;b&gt;ARN&lt;/b&gt;: arn:aws:sqs:eu-west-1:123456789012:int-eu-live-events.fifo&lt;BR&gt;-----------&lt;BR&gt;&lt;b&gt;DelaySeconds&lt;/b&gt;: 0&lt;BR&gt;&lt;b&gt;FifoQueue&lt;/b&gt;: TRUE&lt;BR&gt;&lt;b&gt;ReceiveMessageWaitTimeSeconds&lt;/b&gt;: 0&lt;BR&gt;&lt;b&gt;SqsManagedSseEnabled&lt;/b&gt;: false&lt;BR&gt;&lt;b&gt;VisibilityTimeout&lt;/b&gt;: 30" style="sketch=0;outlineConnect=0;fontColor=#232F3E;gradientColor=#FF4F8B;gradientDirection=north;fillColor=#BC1356;strokeColor=#ffffff;dashed=0;verticalLabelPosition=bottom;verticalAlign=top;align=left;html=1;fontSize=12;fontStyle=0;aspect=fixed;shape=mxgraph.aws4.resourceIcon;resIcon=mxgraph.aws4.sqs;" parent="1" vertex="1">
					<mxGeometry width="78" height="78" as="geometry" x="30" y="340"/>
				</mxCell>
				<mxCell id="vertex:sns:arn:aws:sns:eu-west-1:123456789012:internal.fifo" value="&lt;b&gt;Name&lt;/b&gt;: internal.fifo&lt;BR&gt;&lt;b&gt;ARN&lt;/b&gt;: arn:aws:sns:eu-west-1:123456789012:internal.fifo&lt;BR&gt;-----------&lt;BR&gt;&lt;b&gt;Owner&lt;/b&gt;: 123456789012&lt;BR&gt;&lt;b&gt;SubscriptionsConfirmed&lt;/b&gt;: 3&lt;BR&gt;&lt;b&gt;SubscriptionsPending&lt;/b&gt;: 0" style="sketch=0;outlineConnect=0;fontColor=#232F3E;gradientColor=#FF4F8B;gradientDirection=north;fillColor=#BC1356;strokeColor=#ffffff;dashed=0;verticalLabelPosition=bottom;verticalAlign=top;align=left;html=1;fontSize=12;fontStyle=0;aspect=fixed;shape=mxgraph.aws4.resourceIcon;resIcon=mxgraph.aws4.sns;" parent="1" vertex="1">
					<mxGeometry width="78" height="78" as="geometry" x="410" y="340"/>
				</mxCell>
				<mxCell id="vertex:lambda_function:arn:aws:lambda:eu-west-1:123456789:function:producer-lambda" value="&lt;b&gt;Name&lt;/b&gt;: producer-lambda&lt;BR&gt;&lt;b&gt;ARN&lt;/b&gt;: arn:aws:lambda:eu-west-1:123456789:function:producer-lambda&lt;BR&gt;-----------&lt;BR&gt;&lt;b&gt;CodeSize&lt;/b&gt;: 1234&lt;BR&gt;&lt;b&gt;Handler&lt;/b&gt;: main&lt;BR&gt;&lt;b&gt;Layers&lt;/b&gt;: 0&lt;BR&gt;&lt;b&gt;Memory&lt;/b&gt;: 128&lt;BR&gt;&lt;b&gt;PackageType&lt;/b&gt;: Zip&lt;BR&gt;&lt;b&gt;Runtime&lt;/b&gt;: go1.x&lt;BR&gt;&lt;b&gt;Timeout&lt;/b&gt;: 30&lt;BR&gt;&lt;b&gt;TracingConfig&lt;/b&gt;: {'Mode': 'Active'}&lt;BR&gt;&lt;b&gt;Version&lt;/b&gt;: $LATEST" style="verticalLabelPosition=bottom;verticalAlign=top;aspect=fixed;align=left;pointerEvents=1;shape=mxgraph.aws3.lambda_function;prIcon=server;fillColor=#F58534;gradientColor=none;html=1;" parent="1" vertex="1">
					<mxGeometry width="69" height="72" as="geometry" x="753" y="470"/>
				</mxCell>
				<mxCell id="vertex:iam_role:arn:aws:iam::123456789012:role/serverless_role" value="&lt;b&gt;Name&lt;/b&gt;: serverless_role&lt;BR&gt;&lt;b&gt;ARN&lt;/b&gt;: arn:aws:iam::123456789012:role/serverless_role" style="outlineConnect=0;dashed=0;verticalLabelPosition=bottom;verticalAlign=top;align=left;html=1;shape=mxgraph.aws3.role;fillColor=#759C3E;gradientColor=none;" parent="1" vertex="1">
					<mxGeometry width="94.5" height="79.5" as="geometry" x="401.75" y="-56.25"/>
				</mxCell>
				<mxCell id="vertex:iam_policy:arn:aws:iam::123456789012:policy/access-userPolicy" value="&lt;b&gt;Name&lt;/b&gt;: access-userPolicy&lt;BR&gt;&lt;b&gt;ARN&lt;/b&gt;: arn:aws:iam::123456789012:policy/access-userPolicy" style="sketch=0;outlineConnect=0;fontColor=#232F3E;gradientColor=none;fillColor=#3F8624;strokeColor=none;dashed=0;verticalLabelPosition=bottom;verticalAlign=top;align=left;html=1;fontSize=12;fontStyle=0;aspect=fixed;pointerEvents=1;shape=mxgraph.aws4.policy;" parent="1" vertex="1">
					<mxGeometry width="78" height="67" as="geometry" x="748.5" y="-50"/>
				</mxCell>
				<mxCell id="vertex:iam_permission:arn:aws:iam::123456789012:policy/permission" value="&lt;b&gt;Name&lt;/b&gt;: permission&lt;BR&gt;&lt;b&gt;ARN&lt;/b&gt;: arn:aws:iam::123456789012:policy/permission" style="outlineConnect=0;dashed=0;verticalLabelPosition=bottom;verticalAlign=top;align=left;html=1;shape=mxgraph.aws3.permissions_2;fillColor=#D2D3D3;gradientColor=none;" parent="1" vertex="1">
					<mxGeometry width="46.5" height="63" as="geometry" x="1107.75" y="-46.25"/>
				</mxCell>
				<mxCell id="vertex:s3:arn:aws:s3:eu-west-1:123456789012:shared_bucket" value="&lt;b&gt;Name&lt;/b&gt;: shared_bucket&lt;BR&gt;&lt;b&gt;ARN&lt;/b&gt;: arn:aws:s3:eu-west-1:123456789012:shared_bucket" style="outlineConnect=0;dashed=0;verticalLabelPosition=bottom;verticalAlign=top;align=left;html=1;shape=mxgraph.aws3.bucket_with_objects;fillColor=#E05243;gradientColor=none;" parent="1" vertex="1">
					<mxGeometry width="78" height="78" as="geometry" x="30" y="594.5"/>
				</mxCell>
				<mxCell id="vertex:kms:arn:aws:kms:eu-west-1:123456789012:encr_key" value="&lt;b&gt;Name&lt;/b&gt;: encr_key&lt;BR&gt;&lt;b&gt;ARN&lt;/b&gt;: arn:aws:kms:eu-west-1:123456789012:encr_key" style="outlineConnect=0;dashed=0;verticalLabelPosition=bottom;verticalAlign=top;align=left;html=1;shape=mxgraph.aws3.kms;fillColor=#759C3E;gradientColor=none;" parent="1" vertex="1">
					<mxGeometry width="76.5" height="93" as="geometry" x="410" y="579.5"/>
				</mxCell>
				<mxCell id="vertex:ssm:arn:aws:ssm:eu-west-1:123456789012:rds_params" value="&lt;b&gt;Name&lt;/b&gt;: rds_params&lt;BR&gt;&lt;b&gt;ARN&lt;/b&gt;: arn:aws:ssm:eu-west-1:123456789012:rds_params" style="outlineConnect=0;dashed=0;verticalLabelPosition=bottom;verticalAlign=top;align=left;html=1;shape=mxgraph.aws3.parameter_store;fillColor=#759C3E;gradientColor=none;" parent="1" vertex="1">
					<mxGeometry width="75" height="102" as="geometry" x="750" y="126"/>
				</mxCell>
				<mxCell id="vertex:mq:arn:aws:mq:eu-west-1:123456789012:event_broker" value="&lt;b&gt;Name&lt;/b&gt;: event_broker&lt;BR&gt;&lt;b&gt;ARN&lt;/b&gt;: arn:aws:mq:eu-west-1:123456789012:event_broker" style="sketch=0;outlineConnect=0;fontColor=#232F3E;gradientColor=#FF4F8B;gradientDirection=north;fillColor=#BC1356;strokeColor=#ffffff;dashed=0;verticalLabelPosition=bottom;verticalAlign=top;align=left;html=1;fontSize=12;fontStyle=0;aspect=fixed;shape=mxgraph.aws4.resourceIcon;resIcon=mxgraph.aws4.mq;" parent="1" vertex="1">
					<mxGeometry width="78" height="78" as="geometry" x="750" y="340"/>
				</mxCell>
				<mxCell id="vertex:mq_broker:arn:aws:mq_broker:eu-west-1:123456789012:mq_broker" value="&lt;b&gt;Name&lt;/b&gt;: mq_broker&lt;BR&gt;&lt;b&gt;ID&lt;/b&gt;: arn:aws:mq_broker:eu-west-1:123456789012:mq_broker" style="sketch=0;outlineConnect=0;fontColor=#232F3E;gradientColor=none;fillColor=#B0084D;strokeColor=none;dashed=0;verticalLabelPosition=bottom;verticalAlign=top;align=left;html=1;fontSize=12;fontStyle=0;aspect=fixed;pointerEvents=1;shape=mxgraph.aws4.mq_broker;" parent="1" vertex="1">
					<mxGeometry width="78" height="78" as="geometry" x="1100" y="594.5"/>
				</mxCell>
				<mxCell id="vertex:http:http://ipranges.com" value="&lt;b&gt;Name&lt;/b&gt;: http&lt;BR&gt;&lt;b&gt;ID&lt;/b&gt;: http://ipranges.com" style="outlineConnect=0;dashed=0;verticalLabelPosition=bottom;verticalAlign=top;align=left;html=1;shape=mxgraph.aws3.http_protocol;fillColor=#5294CF;gradientColor=none;" parent="1" vertex="1">
					<mxGeometry width="63" height="66" as="geometry" x="417.5" y="126"/>
				</mxCell>
				<mxCell id="vertex:event_bridge:arn:aws:scheduler:eu-west-1:123456789012:schedule/group-1/schedule-1" value="&lt;b&gt;Name&lt;/b&gt;: schedule-1&lt;BR&gt;&lt;b&gt;ARN&lt;/b&gt;: arn:aws:scheduler:eu-west-1:123456789012:schedule/group-1/schedule-1&lt;BR&gt;-----------&lt;BR&gt;&lt;b&gt;CreationDate&lt;/b&gt;: 2023-03-28 17:24:07&lt;BR&gt;&lt;b&gt;FlexibleTimeWindow&lt;/b&gt;: {'Mode': 'OFF'}&lt;BR&gt;&lt;b&gt;GroupName&lt;/b&gt;: group-1&lt;BR&gt;&lt;b&gt;Input&lt;/b&gt;: {'val1': 123, 'val3': 333}&lt;BR&gt;&lt;b&gt;ModificationDate&lt;/b&gt;: 2023-04-28 08:00:30&lt;BR&gt;&lt;b&gt;RetryPolicy&lt;/b&gt;: {'MaximumEventAgeInSeconds': 86400, 'MaximumRetryAttempts': 185}&lt;BR&gt;&lt;b&gt;RoleArn&lt;/b&gt;: arn:aws:iam::123456789012:role/serverless/DefaultRole&lt;BR&gt;&lt;b&gt;ScheduleExpression&lt;/b&gt;: rate(7 days)&lt;BR&gt;&lt;b&gt;ScheduleExpressionTimezone&lt;/b&gt;: UTC&lt;BR&gt;&lt;b&gt;StartDate&lt;/b&gt;: 2023-04-21 08:00:00&lt;BR&gt;&lt;b&gt;State&lt;/b&gt;: ENABLED&lt;BR&gt;&lt;b&gt;Target&lt;/b&gt;: arn:aws:lambda:eu-west-1:123456789012:function:executor" style="sketch=0;outlineConnect=0;fontColor=#232F3E;gradientColor=#FF4F8B;gradientDirection=north;fillColor=#BC1356;strokeColor=#ffffff;dashed=0;verticalLabelPosition=bottom;verticalAlign=top;align=left;html=1;fontSize=12;fontStyle=0;aspect=fixed;shape=mxgraph.aws4.resourceIcon;resIcon=mxgraph.aws4.eventbridge;" parent="1" vertex="1">
					<mxGeometry width="78" height="78" as="geometry" x="1570" y="-46.25"/>
				</mxCell>
				<mxCell id="vertex:client_vpn:aws:clientvpn:us-west-1:prod/cvpn-endpoint-0e3b" value="&lt;b&gt;Name&lt;/b&gt;: vpc-client-vpn&lt;BR&gt;&lt;b&gt;ARN&lt;/b&gt;: aws:clientvpn:us-west-1:prod/cvpn-endpoint-0e3b&lt;BR&gt;-----------&lt;BR&gt;&lt;b&gt;SplitTunnel&lt;/b&gt;: False&lt;BR&gt;&lt;b&gt;DNSServer&lt;/b&gt;: 8.8.8.8&lt;BR&gt;&lt;b&gt;VPNProtocol&lt;/b&gt;: openVPN&lt;BR&gt;&lt;b&gt;Transport&lt;/b&gt;: UDP&lt;BR&gt;&lt;b&gt;VPNPort&lt;/b&gt;: 443&lt;BR&gt;&lt;b&gt;ClientCertificateARN&lt;/b&gt;: arn:aws:acm:us-west-1:123456789012:certificate/cd2e&lt;BR&gt;&lt;b&gt;ServerCertificateARN&lt;/b&gt;: arn:aws:acm:us-west-1:123456789012:certificate/7d100&lt;BR&gt;&lt;b&gt;Authentication type&lt;/b&gt;: certificate-authentication&lt;BR&gt;&lt;b&gt;DNS Name&lt;/b&gt;: *.cvpn-endpoint-0e3b.prod.clientvpn.us-west-1.amazonaws.com" style="sketch=0;outlineConnect=0;fontColor=#232F3E;gradientColor=#945DF2;gradientDirection=north;fillColor=#5A30B5;strokeColor=#ffffff;dashed=0;verticalLabelPosition=bottom;verticalAlign=top;align=left;html=1;fontSize=12;fontStyle=0;aspect=fixed;shape=mxgraph.aws4.resourceIcon;resIcon=mxgraph.aws4.client_vpn;" parent="1" vertex="1">
					<mxGeometry width="78" height="78" as="geometry" x="1570" y="272"/>
				</mxCell>
				<mxCell id="vertex:certificate_manager:arn:aws:acm:us-west-1:123456789012:certificate/cd2e" value="&lt;b&gt;Name&lt;/b&gt;: Client Certificate&lt;BR&gt;&lt;b&gt;ARN&lt;/b&gt;: arn:aws:acm:us-west-1:123456789012:certificate/cd2e&lt;BR&gt;-----------&lt;BR&gt;&lt;b&gt;ARN&lt;/b&gt;: arn:aws:acm:us-west-1:123456789012:certificate/cd2e&lt;BR&gt;&lt;b&gt;Domain&lt;/b&gt;: client1.domain.tld&lt;BR&gt;&lt;b&gt;Type&lt;/b&gt;: Imported&lt;BR&gt;&lt;b&gt;Public Key info&lt;/b&gt;: RSA 2048&lt;BR&gt;&lt;b&gt;Signature algorithm&lt;/b&gt;: SHA-256 with RSA" style="sketch=0;outlineConnect=0;fontColor=#232F3E;gradientColor=none;fillColor=#3F8624;strokeColor=none;dashed=0;verticalLabelPosition=bottom;verticalAlign=top;align=left;html=1;fontSize=12;fontStyle=0;aspect=fixed;pointerEvents=1;shape=mxgraph.aws4.certificate_manager;" parent="1" vertex="1">
					<mxGeometry width="59" height="78" as="geometry" x="1570" y="540"/>
				</mxCell>
			</root>
		</mxGraphModel>
	</diagram>
</mxfile>